<?xml version="1.0" encoding="UTF-8"?>
<!-- Created with Inkscape (http://www.inkscape.org/) -->
<svg width="158.41mm" height="34.508mm" version="1.1" viewBox="0 0 158.41 34.508" xmlns="http://www.w3.org/2000/svg" xmlns:cc="http://creativecommons.org/ns#" xmlns:dc="http://purl.org/dc/elements/1.1/" xmlns:rdf="http://www.w3.org/1999/02/22-rdf-syntax-ns#">
 <metadata>
  <rdf:RDF>
   <cc:Work rdf:about="">
    <dc:format>image/svg+xml</dc:format>
    <dc:type rdf:resource="http://purl.org/dc/dcmitype/StillImage"/>
    <dc:title/>
   </cc:Work>
  </rdf:RDF>
 </metadata>
 <g transform="translate(-31.75 -177.73)">
  <path d="m32.015 212.04c-0.14552-0.15048-0.26458-1.3584-0.26458-2.6842v-2.4106h1.4343c2.9645 0 2.799 0.7055 2.799-11.936 0-8.2453-0.11184-11.318-0.42333-11.629-0.23283-0.23283-1.1853-0.42333-2.1167-0.42333h-1.6933v-4.9389h3.3284c3.6973 0 4.852 0.30908 6.2939 1.6847l0.97927 0.93424 0.8744-0.943c1.4719-1.5874 2.6591-1.7176 14.63-1.6045l11.113 0.10496 0.10577 2.2333c0.09477 2.0012 0.03062 2.253-0.61736 2.4224-0.85836 0.22447-0.9153 0.56649-0.19396 1.1652 0.39331 0.32642 0.52917 1.1979 0.52917 3.3946v2.9554h-4.7926l-0.40129-1.4993c-0.57906-2.1635-1.8377-3.8412-3.6393-4.8507-1.4255-0.79883-2.031-0.89344-6.4245-1.004l-4.8507-0.12202v9.5416l7.3201 0.12459c8.2567 0.14053 9.5195 0.45461 12.201 3.0345 2.1584 2.0768 2.8422 3.7003 2.8515 6.7698 0.0068 2.2656-0.13935 2.9145-1.0174 4.5158-1.2184 2.2219-3.1743 3.7583-5.8327 4.5818-1.5944 0.49387-3.4183 0.60127-10.231 0.60242-8.9445 2e-3 -9.7854-0.15129-11.091-2.0154l-0.55058-0.78606-0.55058 0.78606c-0.97429 1.391-2.5827 1.943-6.1522 2.1116-1.8433 0.0871-3.4705 0.0352-3.616-0.11528zm27.436-4.6395c-0.13018-0.86813-0.32336-1.4918-0.42929-1.3858-0.10592 0.10593-0.06718 1.1127 0.0861 2.2372 0.15328 1.1245 0.34646 1.7482 0.42928 1.3858 0.08283-0.36233 0.04408-1.3691-0.0861-2.2372zm1.319 0.22297c-0.16526-0.63776-0.47685-1.2184-0.69241-1.2902-0.37392-0.12464-0.0608 1.9495 0.51842 3.434 0.36037 0.92363 0.5055-0.86453 0.174-2.1438zm1.5109 0.82092c-0.24366-0.99384-1.2498-2.3041-1.2498-1.6276 0 0.20666 0.17428 0.87567 0.38729 1.4867 0.48092 1.3796 1.1947 1.4961 0.86246 0.14084zm1.2197-0.20991c0-0.26097-0.3175-0.76182-0.70556-1.113-0.80867-0.73184-0.87413-0.57956-0.29615 0.68896 0.439 0.96349 1.0017 1.2017 1.0017 0.42405zm-20.251-2.6261c2.2061-1.85 2.4416-2.1738 2.5013-3.4396l0.06589-1.3974-0.37782 1.1337c-0.38416 1.1527-2.098 2.9542-3.9803 4.1838-0.57228 0.37385-0.05391-0.28056 1.1519-1.4542 1.4118-1.3742 2.1925-2.4178 2.1925-2.9312 0-0.44167-0.15734-0.70002-0.35278-0.57923-0.19403 0.11991-0.35278 0.38418-0.35278 0.58725 0 0.49497-1.4698 2.2144-2.898 3.3902-1.4385 1.1843-0.59762 0.067 1.2618-1.6765 0.7751-0.72678 1.3074-1.5267 1.2347-1.8556-0.08998-0.40744-0.72166 0.11548-2.1393 1.771-1.1082 1.2941-1.8528 2.4472-1.658 2.5676 0.19446 0.12019 0.3794 0.56143 0.41097 0.98053s0.158 0.76201 0.28097 0.76201 1.3195-0.919 2.659-2.0422zm20.511 1.0931c-0.328-0.328-0.71461-0.47812-0.85913-0.3336s-0.02924 0.41045 0.25618 0.59096c0.85886 0.54316 1.2405 0.38024 0.60294-0.25736zm-8.1088-0.5932c1.6297-0.84273 2.204-1.883 2.204-3.9919 0-3.3929-2.4357-5.049-7.4257-5.049h-1.7465v9.9772l2.9327-0.18296c1.6645-0.10384 3.4096-0.42958 4.0355-0.75327zm8.1365-1.7239c0.06139-0.53192-0.02592-0.96713-0.19403-0.96713-0.52679 0-1.1523 0.81836-1.1523 1.5075 0 1.0756 1.2162 0.58748 1.3463-0.54041zm1.7028 0.61588c0.21087-0.54953-0.42611-1.583-0.97568-1.583-0.36054 0-0.42122 1.5347-0.0744 1.8815 0.3914 0.3914 0.83358 0.26571 1.0501-0.29848zm-24.271-1.9109c2.0698-2.4546 1.8292-2.9026-0.29756-0.55407-0.97014 1.0713-1.7639 2.0254-1.7639 2.1204 0 0.54894 0.7732-0.0386 2.0614-1.5663zm21.575-0.43236c0-0.42872-1.6788-0.36834-1.9498 0.0701-0.12517 0.20253-0.0324 0.60341 0.20615 0.89085 0.38109 0.45918 0.51322 0.45067 1.0887-0.0701 0.36024-0.32601 0.65497-0.72689 0.65497-0.89085zm4.4306 0.0885c-0.28992-0.46909-1.9612-0.51941-1.9612-0.059 0 0.18017 0.2608 0.58838 0.57956 0.90714 0.51088 0.51089 0.64125 0.51789 1.1001 0.059 0.28628-0.28628 0.41299-0.69449 0.28156-0.90714zm-25.874-1.6214c0.25499-0.48869 0.01946-0.38026-0.76627 0.35278-0.62393 0.58208-1.3001 1.3758-1.5026 1.7639-0.25499 0.48869-0.01946 0.38025 0.76627-0.35278 0.62393-0.58209 1.3001-1.3758 1.5026-1.7639zm23.012 0.85181c-0.11359-0.18378-0.35689-0.24122-0.54068-0.12763-0.18379 0.11358-0.24122 0.35689-0.12764 0.54067 0.11359 0.18379 0.35689 0.24122 0.54068 0.12764 0.18379-0.11359 0.24122-0.35689 0.12764-0.54068zm-1.6487-0.38564c-0.24914-0.74741-1.2711-1.1967-1.7142-0.75356-0.22127 0.22126-0.29564 0.57488-0.16528 0.78582 0.3252 0.52618 2.0557 0.49649 1.8795-0.0323zm4.5085 0.0323c0.13036-0.21093 0.05599-0.56455-0.16528-0.78582-0.4431-0.44311-1.4651 6e-3 -1.7142 0.75357-0.17625 0.52874 1.5543 0.55843 1.8795 0.0323zm-26.397-1.2409c-0.24691-0.24691-1.3154 0.25363-1.3154 0.61621 0 0.18021 0.33084 0.15038 0.73577-0.0663 0.40467-0.21657 0.66552-0.46402 0.57966-0.54988zm23.026-0.27815c0-0.96756-0.9815-1.5304-1.2858-0.73735-0.28526 0.74338 0.10987 1.5816 0.74558 1.5816 0.33463 0 0.54024-0.3213 0.54024-0.8442zm1.2059 0.63007c0.54757-0.21013 0.76255-1.2276 0.34714-1.643-0.43926-0.43926-1.2002 0.20298-1.2002 1.013 0 0.92102 0.03244 0.94498 0.85309 0.63007zm-23.143-3.4049c0.06139-0.53192-0.03306-0.96712-0.20991-0.96712-0.56076 0-1.5685 1.3502-1.3145 1.7612 0.44021 0.71228 1.4088 0.20775 1.5244-0.79407zm2.1814 0.51455c0-0.65433-0.63035-1.4817-1.1289-1.4817-0.15522 0-0.28222 0.47625-0.28222 1.0583 0 0.82315 0.15679 1.0583 0.70556 1.0583 0.44424 0 0.70556-0.23519 0.70556-0.635zm15.447-0.97069c0.17414-0.77504 0.194-1.723 0.04413-2.1066-0.24376-0.62389-0.27552-0.60444-0.30117 0.18451-0.01577 0.48507-0.12878 1.5169-0.25112 2.293-0.28012 1.777 0.08551 1.5101 0.50816-0.37096zm1.2654 0.15048c0.32327-1.6163 0.27527-2.9782-0.09107-2.5841-0.4559 0.49041-0.85446 3.6865-0.45972 3.6865 0.18166 0 0.42952-0.4961 0.55078-1.1024zm3.3955 0.1843c0-0.10326-0.33097-0.0827-0.73549 0.0457-0.71539 0.22706-0.7191 0.20843-0.13582-0.68178 0.7293-1.113 0.07756-1.2358-0.69619-0.13117-0.62244 0.88867-0.72319 1.4818-0.19639 1.1562 0.19403-0.11991 0.35278-0.0443 0.35278 0.16798 0 0.27669 0.19981 0.27908 0.70556 8e-3 0.38806-0.20768 0.70556-0.46209 0.70556-0.56535zm-1.7639-1.7668c0-0.46357-0.07724-0.84286-0.17166-0.84286-0.22687 0-1.2428 2.4439-1.2277 2.9535 0.02324 0.78786 1.3994-1.2877 1.3994-2.1106zm-22.202 1.2614c0.97616-0.52243 0.86417-1.3987-0.17876-1.3987-0.97196 0-1.4129 0.49213-1.1215 1.2516 0.23384 0.60938 0.40108 0.6283 1.3002 0.14709zm5.4449-0.54616c0-0.47538-0.28807-0.7093-0.97014-0.78778-1.1264-0.12961-1.3575 0.73333-0.35278 1.3174 0.83248 0.48401 1.3229 0.28765 1.3229-0.52966zm-2.9986-1.0289c0-0.29104-0.15875-0.52917-0.35278-0.52917s-0.35278 0.23813-0.35278 0.52917 0.15875 0.52916 0.35278 0.52916 0.35278-0.23812 0.35278-0.52916zm-1.9307-0.54462c0.28686-0.46415-0.4621-1.3957-1.1222-1.3957-0.27337 0-0.59457 0.25415-0.71377 0.56477-0.34543 0.90017 1.3257 1.6565 1.8359 0.83089zm4.7162 0.0457c0.58993-0.37354 0.26537-1.4413-0.43811-1.4413-0.66005 0-1.409 0.93151-1.1222 1.3957 0.27635 0.44714 0.89749 0.46532 1.5603 0.0457zm-3.5493-2.1908c-0.13295-0.93561-1.1607-1.3184-1.4582-0.54308-0.26612 0.69351 0.78946 2.1607 1.2344 1.7157 0.188-0.188 0.28869-0.71569 0.22376-1.1726zm2.0474-0.48522c-0.36383-0.94813-1.0978-0.40025-1.2179 0.90907l-0.11072 1.2076 0.7771-0.76437c0.48322-0.4753 0.69179-0.98669 0.55151-1.3522zm0.83311-2.4695c0.24498-0.29518 0.28318-0.52916 0.08639-0.52916-0.19403 0-0.5504 0.23812-0.79195 0.52916-0.24498 0.29519-0.28318 0.52917-0.08639 0.52917 0.19403 0 0.5504-0.23812 0.79195-0.52917zm0.68672-4.2333c2e-3 -0.19403-0.78671 0.46886-1.7527 1.4731s-1.7512 2.0361-1.7451 2.293c0.01268 0.52779 3.4921-3.2186 3.4977-3.7661zm-0.72326 2.81c1.0341-1.1778 1.4821-2.209 0.76787-1.7675-0.62717 0.38761-2.5518 3.0145-2.2086 3.0145 0.19023 0 0.83857-0.56114 1.4408-1.247zm-3.1004-2.9573c2.6259-2.0432 2.6859-2.0001 0.40296 0.28911-1.2136 1.217-2.2049 2.5241-2.2049 2.9075 0 0.38309 0.15875 0.59842 0.35278 0.47851 0.19403-0.11992 0.35278-0.42735 0.35278-0.68318s0.26412-0.68303 0.58692-0.94932c0.53056-0.43768 0.5475-0.41017 0.17639 0.28639-0.86902 1.6311-0.34249 1.5234 1.2652-0.2589 2.3033-2.5534 2.9881-3.6122 1.4719-2.2756-0.66028 0.58209-1.255 1.1774-1.3215 1.3229-0.06654 0.14552-0.29764 0.26458-0.51356 0.26458-0.21592 0 0.1545-0.56438 0.82315-1.2542 0.67069-0.69191 1.2229-1.6306 1.2318-2.0938 0.01832-0.95723 0.04271-0.96774-2.7881 1.2015-2.1562 1.6523-3.1859 3.1427-2.8235 4.0871 0.16537 0.43095 0.37217 0.23858 0.82927-0.7714 0.33493-0.74003 1.3062-1.8881 2.1584-2.5512zm33.211 26.924c-0.29095-0.13227-0.44097-1.0306-0.44097-2.6405v-2.44h1.7387c2.9526 0 2.8474 0.44878 2.8474-12.153 0-8.5222-0.10274-11.129-0.44993-11.418-0.24746-0.20537-1.2396-0.42324-2.2049-0.48416l-1.7549-0.11076v-4.5861l3.175-0.11011c3.6811-0.12765 5.5057 0.30373 6.47 1.5297 0.83705 1.0641 1.1622 1.0904 1.7546 0.14185 0.78018-1.2493 2.5807-1.7378 6.4043-1.7378h3.5391v4.9389h-1.8971c-1.1755 0-2.0496 0.18375-2.298 0.48308-0.28554 0.34405-0.37412 3.7705-0.30778 11.906l0.09314 11.423 1.7639 0.1177c5.0973 0.34014 8.6696-2.1932 9.4933-6.7323l0.24007-1.3229h4.9069v3.2354c0 2.4562-0.13449 3.384-0.55843 3.8525-0.51301 0.56687-0.49866 0.64905 0.17639 1.0103 0.60487 0.32371 0.73482 0.7291 0.73482 2.2923 0 3.2511 0.72664 3.0161-9.2982 3.0066-4.8784-5e-3 -9.4846-0.15103-10.236-0.32534-0.75131-0.17432-1.8839-0.81888-2.5169-1.4324-1.1076-1.0736-1.1689-1.0901-1.6326-0.44021-1.0812 1.5154-2.3351 1.9586-5.8832 2.0794-1.8799 0.064-3.6164 0.0261-3.859-0.0841zm12.444-5.0483c-0.02727-0.37034-0.95326-1.6494-2.0577-2.8423-1.1045-1.193-2.0081-2.4074-2.0081-2.6989s-0.15875-0.43177-0.35278-0.31185c-0.6573 0.40623-0.35743 0.93807 1.8521 3.2849 1.2127 1.288 1.8874 2.1085 1.4993 1.8234-2.4845-1.8258-3.7008-3.0552-3.8943-3.9363-0.12026-0.54754-0.36479-0.99553-0.5434-0.99553-0.37128 0-0.43036 1.0782-0.10547 1.9248 0.22056 0.57477 4.9212 4.4252 5.4023 4.4252 0.14176 0 0.23543-0.303 0.20815-0.67334zm-1.1345-3.3041c-0.98441-1.0138-1.8754-2.0815-1.98-2.3725-0.12483-0.34745-0.19968-0.26109-0.21796 0.25149-0.01792 0.50227 0.62748 1.409 1.8098 2.5427 2.3971 2.2985 2.7048 1.9642 0.38814-0.42168zm2.0069 0.89067c-0.0011-0.44539-3.5023-4.1729-3.5152-3.7423-0.01108 0.37198 3.048 4.0069 3.3721 4.0069 0.07903 0 0.14342-0.11907 0.14307-0.26459zm0.3534-1.1342c0-0.46999-2.111-2.8345-2.5306-2.8345-0.27497 0 2.1364 3.1233 2.4424 3.1634 0.04851 6e-3 0.08819-0.14165 0.08819-0.32893zm-0.70556-2.6581c-0.24154-0.29104-0.59792-0.52917-0.79195-0.52917-0.19679 0-0.15859 0.23399 0.08639 0.52917 0.24154 0.29104 0.59792 0.52917 0.79195 0.52917 0.19679 0 0.15859-0.23399-0.08639-0.52917zm-2.9498-2.8222c0.11169-0.29104 0.10052-0.79639-0.0248-1.123-0.20587-0.5365-0.29878-0.52291-0.9625 0.14081-0.76396 0.76395-0.633 1.5114 0.26482 1.5114 0.28568 0 0.6108-0.23813 0.72248-0.52917zm2.2442-0.10583c0-0.65433-0.63035-1.4817-1.1289-1.4817-0.15522 0-0.28222 0.47625-0.28222 1.0583 0 0.82315 0.15679 1.0583 0.70556 1.0583 0.44424 0 0.70556-0.23519 0.70556-0.635zm-3.7581-1.4221c0.63677-0.70362 0.45486-1.1179-0.49086-1.1179-0.88946 0-1.4826 0.83015-0.96378 1.349 0.55933 0.55933 0.76958 0.52593 1.4546-0.23105zm5.3198 0.0568c0.24129-0.6288-0.32174-1.1605-1.2383-1.1693-0.90127-9e-3 -1.0729 0.4196-0.44586 1.1125 0.72821 0.80466 1.3887 0.82695 1.6842 0.0568zm-2.9728-1.5483c0-0.18258-0.23812-0.33196-0.52917-0.33196-0.54554 0-0.70086 0.41627-0.30357 0.81356 0.28184 0.28184 0.83274-0.0368 0.83274-0.4816zm-1.8536-0.59148c0.07983-0.23975-0.27557-0.6276-0.78978-0.86189-0.76603-0.34902-0.9929-0.334-1.2559 0.0831-0.22042 0.34966-0.13178 0.65041 0.28303 0.96027 0.70605 0.52744 1.5557 0.43994 1.7626-0.18152zm4.663 0.0986c0.94769-1.1419-0.52997-1.699-1.5416-0.58121-0.47044 0.51982-0.50229 0.71024-0.14287 0.85409 0.81135 0.32473 1.247 0.25415 1.6844-0.27288zm-3.515-1.8112c0-0.96373-0.89061-1.5117-1.4873-0.91501-0.27349 0.27349-0.21245 0.63953 0.2156 1.2928 0.69034 1.0536 1.2717 0.88089 1.2717-0.3778zm1.9891-0.67362c-0.36383-0.94813-1.0978-0.40025-1.2179 0.90907l-0.11072 1.2076 0.7771-0.76437c0.48322-0.4753 0.69179-0.98669 0.55151-1.3522zm-3.5621-2.6224c-0.1279-0.20694-0.40136-0.37625-0.60769-0.37625-0.23393 0-0.20716 0.20241 0.07109 0.53769 0.48385 0.583 0.91628 0.4529 0.5366-0.16144zm-0.01451-1.4346c-0.7509-0.76898-1.4446-1.3188-1.5417-1.2218-0.09701 0.097 0.43798 0.80556 1.1889 1.5746s1.4446 1.3188 1.5417 1.2218c0.09701-0.097-0.43798-0.80556-1.1889-1.5746zm0.72848-0.87334c-1.6838-1.9709-1.9632-2.2035-1.9632-1.6343 0 0.45334 3.23 3.9813 3.4466 3.7647 0.09984-0.0999-0.5677-1.0585-1.4834-2.1304zm3.6812 1.5527c0-0.40493-0.90596-1.6975-2.0285-2.8941-1.743-1.858-1.8299-2.0087-0.61736-1.071 1.8395 1.4226 2.4992 2.1736 3.0421 3.4627l0.44539 1.0577 0.13531-1.0069c0.15745-1.1717-0.52549-2.0171-3.4687-4.2938l-1.9625-1.5182-0.41542 1.1006c-0.37687 0.99843-0.32666 1.2002 0.54107 2.1747 0.52606 0.59079 1.2099 1.3142 1.5197 1.6077 0.30979 0.29345 0.74617 0.84907 0.96974 1.2347 0.40214 0.69368 0.40661 0.69375 0.41722 7e-3 0.0059-0.38195-0.82271-1.5519-1.8414-2.5999-1.0186-1.048-1.6855-1.8467-1.4819-1.775 0.54614 0.19253 4.3924 4.4744 4.3924 4.8899 0 0.19572 0.07937 0.35584 0.17639 0.35584 0.09701 0 0.17639-0.32928 0.17639-0.73174zm34.168 23.01c-2.7054-0.70597-4.7268-1.9948-6.696-4.2692-4.6297-5.3472-5.9006-14.687-2.8697-21.088 2.2355-4.7214 6.2721-7.5155 11.91-8.244 3.9132-0.50564 13.391-0.20975 15.91 0.49672 9.446 2.6486 13.508 14.401 8.6009 24.887-2.1762 4.6505-5.411 7.4276-9.7133 8.339-3.6018 0.76299-14.037 0.68926-17.142-0.12113zm22.1-5.8515c2.4026-1.9146 3.154-3.0442 2.7824-4.1824-0.2357-0.72186-0.27607-0.69689-0.55137 0.34087-0.16339 0.61587-0.93236 1.7218-1.7088 2.4576-2.3598 2.2361-2.7695 2.139-0.6104-0.14468 1.9519-2.0645 2.4339-2.9035 1.6681-2.9035-0.19819 0-0.54117 0.39687-0.76218 0.88194s-0.56686 0.88195-0.76855 0.88195c-0.2223 0-0.2-0.16671 0.0566-0.42334 0.23283-0.23283 0.42274-0.74877 0.42201-1.1465-1e-3 -0.61041-0.10441-0.55814-0.66238 0.33513-0.36358 0.58209-1.2361 1.6054-1.939 2.2741s-1.2779 1.3756-1.2779 1.5709 0.602-0.23267 1.3378-0.95115c1.767-1.7255 2.3562-1.6912 0.6669 0.0388-0.72242 0.73983-1.1912 1.4797-1.0417 1.6441 0.14947 0.16441 0.0932 0.19699-0.12512 0.0724-0.24856-0.14187-0.39687 0.10313-0.39687 0.65559 0 0.59514 0.12911 0.78499 0.39687 0.58358 0.21828-0.1642 1.3494-1.0576 2.5135-1.9853zm-23.629 1.219c-0.0283-0.38442-0.88904-1.5765-1.9127-2.6491s-1.9922-2.3852-2.1523-2.917l-0.29108-0.96691-0.0303 1.0481c-0.0236 0.8174 0.41617 1.5119 1.9982 3.1553 1.1157 1.159 1.7904 1.9442 1.4993 1.745-2.151-1.4721-3.5865-2.8857-3.9493-3.8891-0.23416-0.64755-0.5526-1.1774-0.70765-1.1774-0.52106 0-0.28795 1.6786 0.33545 2.4155 0.69713 0.82411 4.6734 3.9345 5.0298 3.9345 0.12769 0 0.20899-0.31453 0.18067-0.69894zm15.085-0.32985c2.0447-0.77738 2.018-0.6255 2.018-11.491 0-5.5001-0.0986-10.257-0.21914-10.571-0.46417-1.2096-2.0563-1.6033-6.4836-1.6033s-6.0195 0.39371-6.4836 1.6033c-0.29215 0.76134-0.28284 20.045 0.0101 20.808 0.42343 1.1034 2.2362 1.5489 6.3624 1.5633 2.1702 8e-3 4.3284-0.13164 4.796-0.30942zm-14.52-0.99968c-0.18416-0.33955-0.84486-1.0936-1.4682-1.6757-0.62337-0.58208-1.4302-1.5346-1.7929-2.1167-0.56951-0.91386-0.65972-0.95723-0.66086-0.31773-7e-4 0.43594 0.83189 1.5606 2.0241 2.734 1.114 1.0964 2.0721 1.9934 2.1291 1.9934 0.057 0-0.047-0.27782-0.23118-0.61736zm-1.2786-3.0698c-1.7406-2.0374-1.9392-2.2002-1.9392-1.5894 0 0.46354 3.2234 3.9347 3.4466 3.7115 0.0907-0.0907-0.58764-1.0456-1.5073-2.1221zm22.372 0.63889c1.3251-1.5054 1.8939-2.5649 1.1203-2.0868-0.66126 0.40869-3.2581 3.7239-2.917 3.7239 0.19561 0 1.0041-0.73673 1.7967-1.6372zm-20.723-0.36109c-0.43073-0.7993-2.3265-2.5696-2.1378-1.9964 0.18894 0.57414 2.1942 2.9366 2.3556 2.7752 0.0722-0.0722-0.0258-0.42263-0.21775-0.77879zm20.191-0.73458c0.6662-0.72694 1.1422-1.3908 1.0578-1.4752-0.19443-0.19444-2.6123 2.1318-2.6123 2.5133 0 0.51773 0.3317 0.29621 1.5546-1.0382zm-20.605-1.3241c-0.24154-0.29104-0.59792-0.52917-0.79195-0.52917-0.19679 0-0.15859 0.23399 0.0864 0.52917 0.24155 0.29104 0.59792 0.52917 0.79195 0.52917 0.19679 0 0.15859-0.23399-0.0864-0.52917zm20.461 0c0.24498-0.29518 0.28318-0.52917 0.0864-0.52917-0.19402 0-0.5504 0.23813-0.79194 0.52917-0.24498 0.29518-0.28319 0.52917-0.0864 0.52917 0.19403 0 0.55041-0.23813 0.79195-0.52917zm-24.154-3.0341c0.31684-0.99827-0.3319-1.6351-1.0546-1.0352-0.29926 0.24837-0.54412 0.74964-0.54412 1.1139 0 0.9263 1.3001 0.86229 1.5988-0.0787zm2.1191 0.36606c0.23923-0.38709-0.77428-1.7417-1.3031-1.7417-0.3521 0-0.40362 1.5408-0.0629 1.8815 0.35761 0.35761 1.106 0.28101 1.366-0.13982zm24.377-0.15416c0.11169-0.29104 0.10052-0.79639-0.0248-1.123-0.20587-0.5365-0.29878-0.52291-0.9625 0.14081-0.76396 0.76395-0.633 1.5114 0.26482 1.5114 0.28568 0 0.6108-0.23813 0.72248-0.52917zm2.2442-0.10583c0-0.65433-0.63035-1.4817-1.1289-1.4817-0.15522 0-0.28222 0.47625-0.28222 1.0583 0 0.82315 0.15679 1.0583 0.70556 1.0583 0.44424 0 0.70555-0.23519 0.70555-0.635zm-30.216-1.4221c0.63057-0.69677 0.45596-1.1179-0.4635-1.1179-0.77948 0-1.4098 0.68186-1.1812 1.2777 0.25881 0.67443 0.95052 0.60722 1.6447-0.15981zm5.1692-0.0706c0-0.80819-0.77095-1.233-1.6355-0.90126-0.52597 0.20183-0.52112 0.28344 0.0547 0.91968 0.81652 0.90225 1.5808 0.89334 1.5808-0.0184zm21.289 0.0706c0.63056-0.69677 0.45595-1.1179-0.4635-1.1179-0.77948 0-1.4098 0.68186-1.1812 1.2777 0.2588 0.67443 0.95052 0.60722 1.6447-0.15981zm5.2803 0.15981c0.22865-0.59585-0.40169-1.2777-1.1812-1.2777-0.91945 0-1.0941 0.42113-0.4635 1.1179 0.69415 0.76703 1.3859 0.83424 1.6447 0.15981zm-29.392-1.6513c0-0.18258-0.23813-0.33196-0.52917-0.33196-0.54554 0-0.70086 0.41627-0.30357 0.81356 0.28184 0.28184 0.83274-0.0368 0.83274-0.4816zm26.458 0c0-0.18258-0.23812-0.33196-0.52917-0.33196-0.54553 0-0.70086 0.41627-0.30357 0.81356 0.28185 0.28184 0.83274-0.0368 0.83274-0.4816zm-28.765-0.19916c0.52495-0.20144 0.52278-0.27575-0.0258-0.88194-0.32948-0.36408-0.7956-0.66197-1.0358-0.66197-0.61596 0-0.88695 0.89529-0.41412 1.3681 0.45447 0.45447 0.67965 0.48129 1.4758 0.17579zm4.5709 6e-3c0.67839-0.26033 0.74789-1.5498 0.0835-1.5498-0.60287 0-1.7215 1.2142-1.4078 1.5279 0.29207 0.29208 0.60647 0.29726 1.3242 0.0218zm21.887-6e-3c0.52495-0.20144 0.52278-0.27575-0.0258-0.88194-0.32949-0.36408-0.79561-0.66197-1.0358-0.66197-0.61596 0-0.88695 0.89529-0.41411 1.3681 0.45446 0.45447 0.67964 0.48129 1.4758 0.17579zm4.7862-0.13818c0.71077-0.38039 0.58712-1.4057-0.16951-1.4057-0.57468 0-1.673 1.2249-1.37 1.5279 0.3291 0.3291 0.76022 0.29488 1.5395-0.1222zm-27.894-1.7308c0.41371-0.77302-0.10711-1.6029-0.83152-1.3249-0.34418 0.13208-0.56477 0.6301-0.56477 1.2751 0 0.80436 0.12934 1.0087 0.53897 0.85151 0.29643-0.11375 0.68223-0.47451 0.85732-0.80169zm24.709-0.23596c0-0.96373-0.89062-1.5117-1.4873-0.91501-0.27349 0.27349-0.21245 0.63953 0.2156 1.2928 0.69034 1.0536 1.2717 0.88089 1.2717-0.3778zm2.0004-0.64428c-0.11788-0.3072-0.45744-0.55855-0.75457-0.55855-0.38837 0-0.54024 0.36913-0.54024 1.3131v1.3131l0.75458-0.75458c0.44212-0.44212 0.66582-0.98585 0.54023-1.3131zm-28.585 1.0245c0.21291-0.55482-0.42801-1.583-0.98675-1.583-0.5555 0-0.74896 1.0448-0.29478 1.592 0.55672 0.67081 1.0219 0.66755 1.2815-9e-3zm3.7897-3.8982c0.15711-0.40943 0.0689-0.42072-0.50189-0.0643-0.38088 0.23786-0.6925 0.54805-0.6925 0.68932 0 0.42633 0.98968-0.0916 1.1944-0.62507zm20.325 0.37489c-0.24154-0.29104-0.59792-0.52916-0.79195-0.52916-0.19679 0-0.15858 0.23398 0.0864 0.52916 0.24154 0.29105 0.59792 0.52917 0.79194 0.52917 0.19679 0 0.15859-0.23398-0.0864-0.52917zm-20.108-4.0815c0-0.20342-0.15875-0.27175-0.35278-0.15183-0.49395 0.30528-0.44137-0.29947 0.0706-0.81139 0.23283-0.23283 0.32354-0.42333 0.20158-0.42333-0.50957 0-1.3678 1.17-1.0172 1.3867 0.21445 0.13254-0.20584 0.87658-1.0172 1.8008-0.76046 0.86623-1.3894 1.7751-1.3977 2.0197-8e-3 0.24459 0.77871-0.43177 1.7488-1.503 0.97014-1.0713 1.7639-2.1142 1.7639-2.3176zm-0.27243 2.324c0.33523-0.39155 0.61305-0.85558 0.61736-1.0312 0.011-0.44895-1.3372 0.81987-2.2136 2.0832l-0.73418 1.0583 0.86045-0.6992c0.47324-0.38455 1.1347-1.0196 1.47-1.4111zm21.148 0.96378c-0.93333-1.3094-2.1788-2.4061-2.1788-1.9185 0 0.39168 2.318 2.8887 2.6816 2.8887 0.10376 0-0.12253-0.43656-0.50286-0.97014zm-23.686-2.8027c1.1556-1.2273 1.9529-2.3928 1.9529-2.8548 0-0.42941-0.0675-0.78075-0.14997-0.78075-0.39301 0-5.022 3.9858-5.3579 4.6134-0.21036 0.39305-0.32043 1.0636-0.2446 1.4902 0.12048 0.67781 0.21045 0.61443 0.71387-0.50293 0.31681-0.70317 1.3363-1.9065 2.2656-2.6741 2.6934-2.2248 2.9306-2.1808 0.54299 0.10064-1.7828 1.7036-2.1981 2.3076-2.1697 3.1558 0.0298 0.88906 0.0701 0.93291 0.26458 0.28773 0.12618-0.41867 1.1082-1.6945 2.1823-2.8352zm25.051 2.8027c-0.72292-1.2371-2.8031-3.4167-3.0373-3.1825-0.1323 0.13229 0.4535 1.0342 1.3018 2.0043 1.5328 1.7529 2.4255 2.3589 1.7355 1.1782zm-23.84-3.2153c-0.31501-0.31501-2.635 2.2973-2.635 2.967 0 0.32566 0.59148-0.1276 1.4284-1.0946 0.78564-0.90773 1.3286-1.7503 1.2065-1.8723zm24.517 2.0457c-0.31115-0.58138-0.31142-0.70623-1e-3 -0.51445 0.22535 0.13927 0.55476 0.63468 0.73202 1.1009 0.2962 0.77906 1.0484 1.1996 1.043 0.58309-5e-3 -0.55006-1.3199-2.2275-3.0089-3.838-2.0727-1.9763-1.4542-1.7068 1.1605 0.50557 1.124 0.95104 1.974 2.0022 2.1598 2.6708 0.25648 0.92284 0.35008 0.99826 0.57424 0.4627 0.4237-1.0123-0.33952-2.197-2.5435-3.9481-2.7418-2.1784-3.1215-2.3766-3.152-1.6458-0.0136 0.32412-0.13932 0.85515-0.27952 1.1801-0.18315 0.42443 0.27428 1.1712 1.6247 2.6523 1.836 2.0137 2.5154 2.3315 1.6909 0.79085zm-2.0257-2.0738c-0.62533-0.57115-1.137-1.1579-1.137-1.3039s0.55563 0.27305 1.2347 0.93126c1.1445 1.1093 1.3877 1.4111 1.137 1.4111-0.0538 0-0.6094-0.4673-1.2347-1.0384zm25.851 26.566c-6.6189-1.0126-11.552-5.9522-13.062-13.079-1.6236-7.6624 0.67121-14.712 5.9238-18.199 3.405-2.2599 4.5681-2.4526 15.87-2.6293l10.142-0.15858v2.4674c0 1.9114-0.12419 2.5151-0.55105 2.6789-0.49954 0.19169-0.49954 0.28498 0 0.99818 0.36795 0.52532 0.55105 1.5812 0.55105 3.1777v2.391h-4.9057l-0.35242-1.2764c-0.56428-2.0436-1.8438-3.6093-3.7188-4.5505-3.0839-1.548-9.1527-1.1001-9.854 0.72738-0.12052 0.31409-0.21913 5.0825-0.21913 10.596 0 9.3684 0.0438 10.069 0.66824 10.694 1.4719 1.4719 5.6083 1.2012 7.2864-0.47696 2.5476-2.5476 0.67308-7.714-2.9764-8.2035l-1.4505-0.19454v-4.4932h18.697v2.1497c0 1.853-0.0974 2.1752-0.70556 2.3342-0.85457 0.22347-0.85886 0.0187 0.0431 2.0578 1.6022 3.6219 0.25314 8.4775-2.9717 10.696-2.6152 1.7993-4.714 2.2334-11.359 2.3495-3.2985 0.0576-6.4735 0.0319-7.0556-0.0572zm10.238-4.611c-0.13018-0.86813-0.31726-1.4979-0.41572-1.3994-0.0985 0.0985-0.0562 1.1052 0.0938 2.2372 0.15006 1.132 0.33713 1.7617 0.41571 1.3994 0.0786-0.36233 0.0364-1.3691-0.0938-2.2372zm1.4068 0.6255c-0.15191-1.1045-0.42076-1.7865-0.70426-1.7865-0.43032 0-0.28206 1.3313 0.38867 3.4901 0.33858 1.0897 0.54586-0.0293 0.31559-1.7036zm1.4718 0.242c-0.17823-1.0176-0.15728-1.0572 0.18621-0.35278 0.21286 0.43656 0.52151 0.79375 0.68588 0.79375 0.44778 0 0.35994-0.8531-0.1421-1.3802-0.36026-0.37824-0.27955-0.42009 0.44097-0.22867 0.84757 0.22517 0.85525 0.21296 0.1972-0.3131-0.37661-0.30108-0.77349-0.41273-0.88195-0.24812-0.10845 0.16461-0.55438 0.2705-0.99094 0.23532-0.92364-0.0744-0.92549-0.0671-0.3701 1.4688 0.5437 1.5036 1.1368 1.5206 0.87483 0.0251zm-16.988-1.2872c-0.0271-0.36838-0.89028-1.5899-1.9181-2.7145s-2.0009-2.371-2.1624-2.7698c-0.27415-0.67694-0.29514-0.66721-0.31601 0.14663-0.0154 0.60079 0.60806 1.5222 2.0061 2.9649 1.1718 1.2092 1.5815 1.7829 0.97014 1.3584-1.8976-1.3175-3.3164-2.816-3.5508-3.7501-0.28229-1.1247-0.86178-1.2078-0.85105-0.12196 0.0105 1.061 0.81375 2.0165 3.317 3.9455 2.3431 1.8057 2.5752 1.8928 2.5051 0.94092zm-0.95563-3.1307c-0.88524-0.91716-1.7836-1.9851-1.9965-2.3731-0.38203-0.69657-0.38709-0.69612-0.39768 0.0353-0.0106 0.72786 3.4769 4.5322 3.8305 4.1786 0.0952-0.0952-0.55112-0.92356-1.4364-1.8407zm19.403 0.53428c0.0614-0.53192-0.0259-0.96713-0.19403-0.96713-0.52679 0-1.1523 0.81836-1.1523 1.5075 0 1.0756 1.2162 0.58748 1.3464-0.54041zm1.7028 0.61588c0.21087-0.54953-0.4261-1.583-0.97568-1.583-0.36054 0-0.42122 1.5347-0.0744 1.8815 0.3914 0.3914 0.83357 0.26571 1.0501-0.29848zm-19.278-0.43648c-1e-3 -0.44539-3.5023-4.1729-3.5152-3.7423-0.0111 0.37198 3.048 4.0069 3.3721 4.0069 0.079 0 0.14341-0.11907 0.14307-0.26459zm16.027-0.99534c0.79188-0.79187 0.68595-1.2095-0.30675-1.2095-1.0584 0-1.4596 0.56373-0.88995 1.2502 0.52718 0.63521 0.52062 0.63543 1.1967-0.0407zm4.985-0.82289c-0.28991-0.46909-1.9612-0.51941-1.9612-0.059 0 0.18017 0.26081 0.58838 0.57957 0.90714 0.51088 0.51089 0.64124 0.51789 1.1001 0.059 0.28628-0.28628 0.41299-0.69449 0.28156-0.90714zm-21.746-0.94635c-1.6916-1.7453-2.0214-1.4789-0.43597 0.35215 0.74114 0.85597 1.405 1.3978 1.4753 1.2042 0.0703-0.19368-0.39742-0.89402-1.0393-1.5563zm19.08 0.61852c0-0.45935-0.41937-0.76484-0.76052-0.554-0.36485 0.22549-0.0503 0.84798 0.42856 0.84798 0.18258 0 0.33196-0.13229 0.33196-0.29398zm-1.8437-0.82735c-0.24913-0.74741-1.2711-1.1967-1.7142-0.75356-0.22127 0.22126-0.29564 0.57488-0.16528 0.78582 0.32521 0.52618 2.0557 0.49649 1.8795-0.0323zm4.5085 0.0323c0.13036-0.21093 0.056-0.56455-0.16528-0.78582-0.4431-0.44311-1.4651 6e-3 -1.7142 0.75357-0.17625 0.52874 1.5543 0.55843 1.8795 0.0323zm-21.362-0.85121c-0.24155-0.29104-0.59792-0.52917-0.79195-0.52917-0.19679 0-0.15859 0.23399 0.0864 0.52917 0.24154 0.29104 0.59792 0.52917 0.79195 0.52917 0.19679 0 0.15858-0.23399-0.0864-0.52917zm17.992-0.66781c0-0.96756-0.9815-1.5304-1.2858-0.73735-0.28526 0.74338 0.10987 1.5816 0.74559 1.5816 0.33462 0 0.54023-0.3213 0.54023-0.8442zm1.6363 0.31503c0.30858-0.80414-0.12481-1.6039-0.74102-1.3674-0.71787 0.27548-0.71982 1.8966-2e-3 1.8966 0.29713 0 0.63161-0.23812 0.7433-0.52917zm-23.321-2.6813c0.31684-0.99827-0.3319-1.6351-1.0546-1.0352-0.29927 0.24837-0.54412 0.74964-0.54412 1.1139 0 0.9263 1.3001 0.86229 1.5988-0.0787zm2.1191 0.36606c0.23924-0.38709-0.77428-1.7417-1.3031-1.7417-0.3521 0-0.40362 1.5408-0.0629 1.8815 0.35761 0.35761 1.106 0.28101 1.366-0.13982zm15.277-1.2905c0.21242-0.99597 0.22822-1.8823 0.0393-2.2049-0.24667-0.42111-0.31913-0.34601-0.33053 0.3426-8e-3 0.48507-0.11301 1.4773-0.23328 2.2049-0.31487 1.905 0.10342 1.6318 0.52451-0.3426zm1.2453 0.21031c0.12127-0.60634 0.21566-1.5192 0.20976-2.0285-0.0153-1.321-0.59753-0.24767-0.90345 1.6655-0.27541 1.7223 0.35577 2.0526 0.69369 0.36297zm3.3955 0.1843c0-0.10326-0.33097-0.0827-0.73549 0.0457-0.71539 0.22706-0.7191 0.20843-0.13581-0.68178 0.7334-1.1193 0.12186-1.232-0.65936-0.12147-0.55021 0.78214-0.55536 0.77698-0.35171-0.35277 0.26967-1.496-0.32517-1.4789-0.86898 0.025-0.56276 1.5563-0.55893 1.5685 0.45829 1.4568 0.48507-0.0533 0.88195 0.0535 0.88195 0.23731 0 0.19582 0.29205 0.17783 0.70555-0.0435 0.38806-0.20768 0.70556-0.46209 0.70556-0.56535zm-23.514-0.78619c0.63056-0.69677 0.45595-1.1179-0.4635-1.1179-0.77948 0-1.4098 0.68186-1.1812 1.2777 0.2588 0.67443 0.95052 0.60722 1.6447-0.15981zm5.1692-0.0706c0-0.80819-0.77095-1.233-1.6355-0.90126-0.52598 0.20183-0.52112 0.28344 0.0547 0.91968 0.81652 0.90225 1.5808 0.89334 1.5808-0.0184zm-3.1384-1.5045c-0.45278-0.45279-0.91194-0.10284-0.57673 0.43955 0.12985 0.2101 0.3977 0.28212 0.59523 0.16004 0.24095-0.14891 0.23486-0.34624-0.0185-0.59959zm-1.6821-0.13147c0.303-0.30299-0.79534-1.5279-1.37-1.5279-0.61596 0-0.88695 0.89529-0.41411 1.3681 0.43827 0.43828 1.4179 0.52603 1.7841 0.15981zm4.2625 0.0218c0.69531-0.26682 0.74005-1.5498 0.0541-1.5498-0.66339 0-1.6744 1.0259-1.4187 1.4396 0.23385 0.37839 0.59071 0.40721 1.3647 0.11021zm-3.0956-1.7306c0.2129-0.55482-0.42801-1.583-0.98675-1.583-0.55551 0-0.74896 1.0448-0.29478 1.592 0.55671 0.67081 1.0219 0.66755 1.2815-9e-3zm1.8527-0.10271c0.43207-0.80733-0.0676-1.651-0.80932-1.3664-0.71946 0.27609-0.76086 2.0028-0.048 2.0028 0.28422 0 0.67001-0.28637 0.85733-0.63637zm1.937-3.7955c0.15712-0.40943 0.0689-0.42072-0.50189-0.0643-0.38087 0.23786-0.6925 0.54805-0.6925 0.68932 0 0.42633 0.98969-0.0916 1.1944-0.62507zm-0.23694-1.2013c0.42959-0.4913 0.78678-1.042 0.79376-1.2239 0.0171-0.44452-2.0661 1.5587-2.5449 2.4473-0.35247 0.65415-0.33099 0.66782 0.29494 0.18773 0.37132-0.28481 1.0266-0.91981 1.4562-1.4111zm-2.6369-1.6796c0.80247-0.82055 1.338-1.613 1.19-1.7609-0.14796-0.14796-0.9715 0.47447-1.8301 1.3832-1.1119 1.1768-1.5546 1.9373-1.5387 2.6429l0.0224 0.99067 0.34868-0.88194c0.19178-0.48507 1.0052-1.5533 1.8077-2.3738zm1.7676 1.0877c0.7276-0.87134 1.3229-1.7636 1.3229-1.9828 0-0.42259-3.513 3.2665-3.5223 3.6988-0.0115 0.53803 0.93176-0.19797 2.1994-1.7161zm-4.3215 0.0113c0-0.23896 0.85055-1.1611 1.8901-2.0492 1.8504-1.5809 2.639-2.0259 2.1298-1.202-0.17151 0.27751-0.0628 0.33893 0.33196 0.18746 1.0082-0.38688 0.65166 0.17942-1.1768 1.8692-0.97014 0.89657-1.7639 1.897-1.7639 2.2231 0 0.37052 0.73824-0.21004 1.9677-1.5474 1.4193-1.5438 1.8967-2.305 1.7129-2.731-0.14016-0.32481-0.26591-0.86837-0.27944-1.2079-0.0135-0.33955-0.0784-0.61736-0.14423-0.61736-0.0658 0-1.219 0.87715-2.5626 1.9492-2.6061 2.0794-3.1704 2.8156-3.1526 4.113 0.0109 0.79433 0.0256 0.79799 0.52917 0.13216 0.28487-0.37663 0.51795-0.8803 0.51795-1.1192z" stroke-width=".35278"/>
 </g>
</svg>
