<?xml version="1.0" encoding="UTF-8"?>
<!-- Created with Inkscape (http://www.inkscape.org/) -->
<svg width="125.94mm" height="35.045mm" version="1.1" viewBox="0 0 125.94 35.045" xmlns="http://www.w3.org/2000/svg" xmlns:cc="http://creativecommons.org/ns#" xmlns:dc="http://purl.org/dc/elements/1.1/" xmlns:rdf="http://www.w3.org/1999/02/22-rdf-syntax-ns#">
 <metadata>
  <rdf:RDF>
   <cc:Work rdf:about="">
    <dc:format>image/svg+xml</dc:format>
    <dc:type rdf:resource="http://purl.org/dc/dcmitype/StillImage"/>
    <dc:title/>
   </cc:Work>
  </rdf:RDF>
 </metadata>
 <g transform="translate(-26.89 -107.48)">
  <g transform="translate(-22.66 -39.949)" stroke-width=".35278">
   <path d="m49.55 164.97v-17.508l8.5549 0.10572c8.2267 0.10167 8.6183 0.13818 10.21 0.95174 2.0214 1.0332 3.8321 2.8606 4.9293 4.9748 1.2585 2.425 1.1719 6.2299-0.20762 9.1161l-1.0315 2.1582 1.029 2.0338c1.3269 2.6227 1.6089 6.3606 0.66594 8.8297-0.80474 2.1072-3.0124 4.4877-5.2622 5.6742-1.7614 0.92896-1.8581 0.93883-10.333 1.0543l-8.5549 0.11658zm30.345-0.01 0.01871-17.462h4.2207c2.3214 0 4.2554 0.0397 4.2978 0.0882 0.04243 0.0485 0.1615 5.8826 0.26458 12.965l0.18743 12.876 11.642 0.35278 0.0991 4.3215 0.0991 4.3215h-20.848l0.01871-17.462zm75.224 17.054c-8.2805-1.3012-14.533-8.5608-14.548-16.892-0.0133-7.314 4.484-13.787 11.369-16.364 1.2147-0.45459 3.0391-0.93884 4.0542-1.0761l1.8457-0.2496 0.189 17.174 17.462 0.1888v0.97806c0 2.8609-2.1193 7.9138-4.4542 10.62-3.5728 4.1411-10.274 6.5067-15.918 5.6197zm-39.795-0.43911c-2.7811-0.87106-5.8216-2.783-7.7666-4.8839-9.9728-10.772-3.3647-27.835 11.258-29.068 10.21-0.86114 19.574 8.0199 18.759 17.793-0.64811 7.7737-4.8096 13.344-11.824 15.827-2.6436 0.93585-7.9568 1.1048-10.426 0.33161z" fill="#f5a711"/>
   <path d="m49.55 164.97v-17.508l8.5549 0.10572c8.2267 0.10167 8.6183 0.13818 10.21 0.95174 2.0214 1.0332 3.8321 2.8606 4.9293 4.9748 1.2585 2.425 1.1719 6.2299-0.20762 9.1161l-1.0315 2.1582 1.029 2.0338c1.3269 2.6227 1.6089 6.3606 0.66594 8.8297-0.80474 2.1072-3.0124 4.4877-5.2622 5.6742-1.7614 0.92896-1.8581 0.93883-10.333 1.0543l-8.5549 0.11658zm30.345-0.01 0.01871-17.462h4.2207c2.3214 0 4.2554 0.0397 4.2978 0.0882 0.04243 0.0485 0.1615 5.8826 0.26458 12.965l0.18743 12.876 11.642 0.35278 0.0991 4.3215 0.0991 4.3215h-20.848l0.01871-17.462zm75.224 17.054c-8.2805-1.3012-14.533-8.5608-14.548-16.892-0.0133-7.314 4.484-13.787 11.369-16.364 1.2147-0.45459 3.0391-0.93884 4.0542-1.0761l1.8457-0.2496 0.189 17.174 17.462 0.1888v0.97806c0 2.8609-2.1193 7.9138-4.4542 10.62-3.5728 4.1411-10.274 6.5067-15.918 5.6197zm-51.8-17.711c-0.10138-0.26421 0.0601-1.5342 0.35878-2.8222 1.8872-8.1375 8.3342-13.278 16.653-13.278 5.8067 0 10.792 2.6774 14.005 7.5217 1.3346 2.0123 2.7041 5.9938 2.7041 7.8613v1.1976h-16.768c-13.823 0-16.8-0.0844-16.952-0.48038z" fill="#06a9fd"/>
   <path d="m49.55 164.97v-17.508l8.5549 0.10572c8.2267 0.10167 8.6183 0.13818 10.21 0.95174 2.0214 1.0332 3.8321 2.8606 4.9293 4.9748 1.2585 2.425 1.1719 6.2299-0.20762 9.1161l-1.0315 2.1582 1.029 2.0338c1.3269 2.6227 1.6089 6.3606 0.66594 8.8297-0.80474 2.1072-3.0124 4.4877-5.2622 5.6742-1.7614 0.92896-1.8581 0.93883-10.333 1.0543l-8.5549 0.11658zm30.345-0.01 0.01871-17.462h4.2207c2.3214 0 4.2554 0.0397 4.2978 0.0882 0.04243 0.0485 0.1615 5.8826 0.26458 12.965l0.18743 12.876 11.642 0.35278 0.0991 4.3215 0.0991 4.3215h-20.848l0.01871-17.462zm23.423-0.65677c-0.10138-0.26421 0.0601-1.5342 0.35878-2.8222 1.8872-8.1375 8.3342-13.278 16.653-13.278 5.8067 0 10.792 2.6774 14.005 7.5217 1.3346 2.0123 2.7041 5.9938 2.7041 7.8613v1.1976h-16.768c-13.823 0-16.8-0.0844-16.952-0.48038z" fill="#f23876"/>
   <path d="m49.55 164.97v-17.508l8.5549 0.10572c8.2267 0.10167 8.6183 0.13818 10.21 0.95174 2.0214 1.0332 3.8321 2.8606 4.9293 4.9748 1.2585 2.425 1.1719 6.2299-0.20762 9.1161l-1.0315 2.1582 1.029 2.0338c1.3269 2.6227 1.6089 6.3606 0.66594 8.8297-0.80474 2.1072-3.0124 4.4877-5.2622 5.6742-1.7614 0.92896-1.8581 0.93883-10.333 1.0543l-8.5549 0.11658zm53.769-0.66679c-0.10138-0.26421 0.0601-1.5342 0.35878-2.8222 1.8872-8.1375 8.3342-13.278 16.653-13.278 5.8067 0 10.792 2.6774 14.005 7.5217 1.3346 2.0123 2.7041 5.9938 2.7041 7.8613v1.1976h-16.768c-13.823 0-16.8-0.0844-16.952-0.48038z" fill="#ee6f00"/>
   <path d="m49.55 164.97v-17.508l8.5549 0.10572c8.2267 0.10167 8.6183 0.13818 10.21 0.95174 2.0214 1.0332 3.8321 2.8606 4.9293 4.9748 1.2585 2.425 1.1719 6.2299-0.20762 9.1161l-1.0315 2.1582 1.029 2.0338c1.3269 2.6227 1.6089 6.3606 0.66594 8.8297-0.80474 2.1072-3.0124 4.4877-5.2622 5.6742-1.7614 0.92896-1.8581 0.93883-10.333 1.0543l-8.5549 0.11658z" fill="#303f9e"/>
   <path d="m49.55 164.96v-3.392l17.163 0.21145 2.0902 1.0681c2.5189 1.2872 2.8102 2.1158 1.2157 3.4576-1.8533 1.5595-3.1656 1.7669-12.09 1.9113l-8.3785 0.13554z" fill="#0a1165"/>
  </g>
 </g>
</svg>
